<?xml version="1.0" encoding="utf-8"?>
<!DOCTYPE svg PUBLIC "-//W3C//DTD SVG 1.1//EN" "http://www.w3.org/Graphics/SVG/1.1/DTD/svg11.dtd">
<svg version="1.1" baseProfile="full"
 xmlns="http://www.w3.org/2000/svg"
 xmlns:xlink="http://www.w3.org/1999/xlink"
 xmlns:ev="http://www.w3.org/2001/xml-events" 
  height="26px" 
  width="26px" 
>
<path fill="rgb( 158, 147, 60 )"
 d="M26,13 C26,20.18 20.18,26 13,26 C5.82000000000005,26 0,20.18 0,13 C0,5.81999999999999 5.82000000000005,0 13,0 C20.18,0 26,5.81999999999999 26,13 ZM1.625,13 C1.625,19.282 6.71799999999996,24.375 13,24.375 C19.282,24.375 24.375,19.282 24.375,13 C24.375,6.71799999999999 19.282,1.625 13,1.625 C6.71799999999996,1.625 1.625,6.71799999999999 1.625,13 ZM13.373,6.578 C13.48,6.62100000000001 13.568,6.68100000000001 13.64,6.755 C13.643,6.75800000000001 13.647,6.75899999999999 13.65,6.762 C13.65,6.762 18.452,11.564 18.452,11.564 C18.784,11.896 18.784,12.433 18.452,12.765 C18.121,13.096 17.583,13.096 17.252,12.765 C17.252,12.765 13.812,9.32599999999999 13.812,9.32599999999999 C13.812,9.32599999999999 13.812,18.881 13.812,18.881 C13.812,19.223 13.449,19.5 13,19.5 C12.551,19.5 12.187,19.223 12.187,18.881 C12.187,18.881 12.187,9.274 12.187,9.274 C12.187,9.274 8.83900000000006,12.622 8.83900000000006,12.622 C8.52200000000005,12.94 8.00699999999995,12.94 7.69000000000005,12.622 C7.37300000000005,12.305 7.37300000000005,11.791 7.69000000000005,11.474 C7.69000000000005,11.474 12.239,6.92400000000001 12.239,6.92400000000001 C12.347,6.679 12.6420000000001,6.5 13,6.5 C13.134,6.5 13.256,6.53100000000001 13.367,6.57499999999999 C13.369,6.57599999999999 13.371,6.577 13.373,6.578 Z "/>
</svg>
