<?xml version="1.0" encoding="utf-8"?>
<!DOCTYPE svg PUBLIC "-//W3C//DTD SVG 1.1//EN" "http://www.w3.org/Graphics/SVG/1.1/DTD/svg11.dtd">
<svg version="1.1" baseProfile="full"
 xmlns="http://www.w3.org/2000/svg"
 xmlns:xlink="http://www.w3.org/1999/xlink"
 xmlns:ev="http://www.w3.org/2001/xml-events" 
  height="26px" 
  width="26px" 
>
<path fill="rgb( 158, 147, 60 )"
 d="M0,13 C0,5.821 5.82000000000005,0 13,0 C20.18,0 26,5.821 26,13 C26,20.18 20.18,26 13,26 C5.82000000000005,26 0,20.18 0,13 ZM24.375,13 C24.375,6.71799999999999 19.282,1.625 13,1.625 C6.71799999999996,1.625 1.625,6.71799999999999 1.625,13 C1.625,19.282 6.71799999999996,24.375 13,24.375 C19.282,24.375 24.375,19.282 24.375,13 ZM12.627,19.422 C12.52,19.379 12.432,19.319 12.36,19.245 C12.357,19.242 12.353,19.241 12.35,19.238 C12.35,19.238 7.548,14.436 7.548,14.436 C7.21600000000001,14.104 7.21600000000001,13.567 7.548,13.235 C7.87900000000002,12.903 8.41700000000003,12.903 8.74800000000005,13.235 C8.74800000000005,13.235 12.188,16.674 12.188,16.674 C12.188,16.674 12.188,7.119 12.188,7.119 C12.188,6.77699999999999 12.551,6.5 13,6.5 C13.449,6.5 13.813,6.77699999999999 13.813,7.119 C13.813,7.119 13.813,16.726 13.813,16.726 C13.813,16.726 17.1609999999999,13.377 17.1609999999999,13.377 C17.478,13.06 17.9930000000001,13.06 18.3099999999999,13.377 C18.627,13.695 18.627,14.209 18.3099999999999,14.526 C18.3099999999999,14.526 13.761,19.076 13.761,19.076 C13.653,19.321 13.3579999999999,19.5 13,19.5 C12.866,19.5 12.744,19.469 12.633,19.425 C12.631,19.425 12.629,19.423 12.627,19.422 Z "/>
</svg>
