<?xml version="1.0" encoding="utf-8"?>
<!DOCTYPE svg PUBLIC "-//W3C//DTD SVG 1.1//EN" "http://www.w3.org/Graphics/SVG/1.1/DTD/svg11.dtd">
<svg version="1.1" baseProfile="full"
 xmlns="http://www.w3.org/2000/svg"
 xmlns:xlink="http://www.w3.org/1999/xlink"
 xmlns:ev="http://www.w3.org/2001/xml-events" 
  height="31px" 
  width="34px" 
>
<path fill="rgb( 247, 235, 150 )"
 d="M33.797,16.299 C33.684,16.591 33.525,16.829 33.333,17.024 C33.326,17.033 33.323,17.044 33.316,17.053 C33.316,17.053 20.755,30.099 20.755,30.099 C19.888,31 18.482,31 17.615,30.099 C16.748,29.198 16.748,27.738 17.615,26.837 C17.615,26.837 26.61,17.494 26.61,17.494 C26.61,17.494 1.619,17.494 1.619,17.494 C0.72499999999999,17.494 0,16.507 0,15.287 C0,14.068 0.72499999999999,13.08 1.619,13.08 C1.619,13.08 26.745,13.08 26.745,13.08 C26.745,13.08 17.987,3.98399999999998 17.987,3.98399999999998 C17.157,3.12099999999998 17.157,1.72399999999999 17.987,0.86200000000002 C18.817,0 20.162,0 20.992,0.86200000000002 C20.992,0.86200000000002 32.89,13.22 32.89,13.22 C33.531,13.513 34,14.315 34,15.287 C34,15.652 33.919,15.982 33.804,16.285 C33.802,16.29 33.799,16.294 33.797,16.299 Z "/>
</svg>
