<?xml version="1.0" encoding="utf-8"?>
<!DOCTYPE svg PUBLIC "-//W3C//DTD SVG 1.1//EN" "http://www.w3.org/Graphics/SVG/1.1/DTD/svg11.dtd">
<svg version="1.1" baseProfile="full"
 xmlns="http://www.w3.org/2000/svg"
 xmlns:xlink="http://www.w3.org/1999/xlink"
 xmlns:ev="http://www.w3.org/2001/xml-events" 
  height="35px" 
  width="32px" 
>
<path fill="rgb( 247, 235, 150 )"
 d="M15.216,34.313 C14.925,34.2 14.687,34.041 14.491,33.849 C14.482,33.841 14.472,33.839 14.463,33.831 C14.463,33.831 1.417,21.271 1.417,21.271 C0.516,20.404 0.516,18.998 1.417,18.131 C2.317,17.263 3.778,17.263 4.678,18.131 C4.678,18.131 14.021,27.125 14.021,27.125 C14.021,27.125 14.021,2.135 14.021,2.135 C14.021,1.24 15.009,0.516 16.229,0.516 C17.448,0.516 18.436,1.24 18.436,2.135 C18.436,2.135 18.436,27.26 18.436,27.26 C18.436,27.26 27.532,18.503 27.532,18.503 C28.394,17.673 29.792,17.673 30.654,18.503 C31.516,19.333 31.516,20.678 30.654,21.508 C30.654,21.508 18.296,33.406 18.296,33.406 C18.002,34.047 17.201,34.516 16.229,34.516 C15.864,34.516 15.534,34.435 15.231,34.32 C15.226,34.318 15.221,34.315 15.216,34.313 Z "/>
</svg>
