<?xml version="1.0" encoding="utf-8"?>
<!DOCTYPE svg PUBLIC "-//W3C//DTD SVG 1.1//EN" "http://www.w3.org/Graphics/SVG/1.1/DTD/svg11.dtd">
<svg version="1.1" baseProfile="full"
 xmlns="http://www.w3.org/2000/svg"
 xmlns:xlink="http://www.w3.org/1999/xlink"
 xmlns:ev="http://www.w3.org/2001/xml-events" 
  height="78px" 
  width="117px" 
>
<path fill="rgb( 247, 235, 150 )"
 d="M115.208,73.284 C114.71,73.476 102.807,77.996 86.608,77.996 C76.358,77.996 67.527,74.949 58.986,72.002 C50.936,69.224 43.332,66.6 34.967,66.6 C22.715,66.6 3.229,73.246 3.03400000000001,73.313 C2.337,73.558 1.565,73.444 0.959,73.015 C0.358,72.587 0,71.895 0,71.158 C0,71.158 0,9.62 0,9.62 C0,8.64699999999999 0.62,7.78199999999998 1.544,7.46600000000001 C2.375,7.18099999999998 22.023,0.50299999999999 35.13,0.50299999999999 C44.267,0.50299999999999 52.572,3.37900000000002 60.602,6.161 C68.745,8.983 77.165,11.899 86.608,11.899 C101.961,11.899 113.442,7.53899999999999 113.557,7.49400000000003 C114.261,7.22500000000002 115.051,7.31700000000001 115.676,7.73899999999998 C116.298,8.16399999999999 116.669,8.868 116.669,9.62 C116.669,9.62 116.669,71.158 116.669,71.158 C116.669,72.1 116.089,72.944 115.208,73.284 ZM4.575,68.016 C6.82899999999999,67.309 10.169,66.316 13.98,65.342 C13.739,61.364 10.446,58.194 6.396,58.194 C5.76300000000001,58.194 5.16,58.298 4.575,58.448 C4.575,58.448 4.575,68.016 4.575,68.016 ZM11.612,9.17399999999998 C8.577,10.013 6.077,10.788 4.575,11.269 C4.575,11.269 4.575,19.14 4.575,19.14 C8.706,19.053 12.044,15.692 12.044,11.553 C12.044,10.714 11.871,9.92599999999999 11.612,9.17399999999998 ZM112.095,12.781 C109.856,13.455 106.487,14.338 102.315,15.07 C102.314,15.114 102.302,15.154 102.302,15.198 C102.302,19.391 105.724,22.801 109.932,22.801 C110.684,22.801 111.409,22.687 112.095,22.482 C112.095,22.482 112.095,12.781 112.095,12.781 ZM112.095,27.146 C111.394,27.281 110.673,27.36 109.932,27.36 C103.39,27.36 98.077,22.192 97.783,15.743 C94.391,16.168 90.644,16.458 86.608,16.458 C76.392,16.458 67.601,13.413 59.1,10.468 C51.075,7.68799999999999 43.494,5.06200000000001 35.13,5.06200000000001 C29.419,5.06200000000001 22.165,6.48599999999999 15.996,8.02199999999999 C16.358,9.14499999999998 16.619,10.31 16.619,11.553 C16.619,18.205 11.229,23.61 4.575,23.699 C4.575,23.699 4.575,53.819 4.575,53.819 C5.173,53.727 5.77200000000001,53.635 6.396,53.635 C12.601,53.635 17.682,58.291 18.446,64.271 C23.962,63.036 29.95,62.042 34.967,62.042 C44.102,62.042 52.429,64.915 60.483,67.695 C68.666,70.518 77.127,73.438 86.608,73.438 C91.122,73.438 95.294,73.059 98.948,72.525 C98.593,71.398 98.339,70.228 98.339,68.985 C98.339,62.279 103.814,56.823 110.543,56.823 C111.075,56.823 111.585,56.898 112.095,56.973 C112.095,56.973 112.095,27.146 112.095,27.146 ZM112.095,61.567 C111.593,61.457 111.079,61.382 110.543,61.382 C106.336,61.382 102.914,64.791 102.914,68.985 C102.914,69.966 103.167,70.869 103.515,71.727 C107.434,70.942 110.447,70.071 112.095,69.536 C112.095,69.536 112.095,61.567 112.095,61.567 ZM59.872,58.273 C48.633,55.919 39.49,45.3 39.49,34.599 C39.49,23.901 48.633,17.112 59.872,19.467 C71.111,21.821 80.253,32.44 80.253,43.139 C80.253,53.84 71.111,60.628 59.872,58.273 ZM59.872,23.822 C51.156,21.996 44.065,27.26 44.065,35.558 C44.065,43.855 51.156,52.092 59.872,53.918 C68.588,55.744 75.679,50.478 75.679,42.181 C75.679,33.883 68.588,25.648 59.872,23.822 Z "/>
</svg>
