<?xml version="1.0" encoding="utf-8"?>
<!DOCTYPE svg PUBLIC "-//W3C//DTD SVG 1.1//EN" "http://www.w3.org/Graphics/SVG/1.1/DTD/svg11.dtd">
<svg version="1.1" baseProfile="full"
 xmlns="http://www.w3.org/2000/svg"
 xmlns:xlink="http://www.w3.org/1999/xlink"
 xmlns:ev="http://www.w3.org/2001/xml-events" 
  height="47px" 
  width="47px" 
>
<path fill="rgb( 217, 196, 36 )"
 d="M23.5,0 C36.479,0 47,10.521 47,23.5 C47,36.479 36.479,47 23.5,47 C10.521,47 0,36.479 0,23.5 C0,10.521 10.521,0 23.5,0 Z "/>
<path fill="rgb( 255, 255, 255 )"
 d="M35.025,30.9359999999999 C35.025,30.9359999999999 34.89,30.6379999999999 34.89,30.6379999999999 C34.484,29.662 29.5,28.1679999999999 29.088,28.143 C29.088,28.143 28.755,28.1690000000001 28.755,28.1690000000001 C28.076,28.3109999999999 27.33,28.9680000000001 25.756,30.3889999999999 C23.984,29.5540000000001 21.561,27.3240000000001 20.418,26.009 C19.181,24.587 17.639,22.193 17.0839999999999,20.405 C18.875,18.7850000000001 19.623,18.0809999999999 19.67,17.297 C19.6950000000001,16.876 18.841,11.6510000000001 17.9400000000001,11.1210000000001 C17.9400000000001,11.1210000000001 17.668,10.9480000000001 17.668,10.9480000000001 C17.097,10.5709999999999 16.229,10 15.268,10.201 C15.034,10.25 14.807,10.3440000000001 14.596,10.4780000000001 C13.947,10.893 12.367,12.0139999999999 11.645,13.4770000000001 C11.201,14.3900000000001 11,22.711 17.1079999999999,29.7439999999999 C23.148,36.6980000000001 30.593,37 31.713,36.7660000000001 C31.713,36.7660000000001 31.742,36.761 31.742,36.761 C31.742,36.761 31.841,36.731 31.841,36.731 C33.351,36.1780000000001 34.6319999999999,34.71 35.114,34.104 C36,32.982 35.3680000000001,31.6510000000001 35.025,30.9359999999999 Z "/>
</svg>
