<?xml version="1.0" encoding="utf-8"?>
<!DOCTYPE svg PUBLIC "-//W3C//DTD SVG 1.1//EN" "http://www.w3.org/Graphics/SVG/1.1/DTD/svg11.dtd">
<svg version="1.1" baseProfile="full"
 xmlns="http://www.w3.org/2000/svg"
 xmlns:xlink="http://www.w3.org/1999/xlink"
 xmlns:ev="http://www.w3.org/2001/xml-events" 
  height="51px" 
  width="71px" 
>
<path fill="rgb( 244, 221, 54 )"
 d="M68,0 C68,0 71,12.796 71,25.568 C71,38.295 68,51 68,51 C68,51 3.5,51 3.5,51 C3.5,51 0,38.252 0,25.504 C0,12.752 3.5,0 3.5,0 C3.5,0 68,0 68,0 Z "/>
<path fill="rgb( 255, 255, 255 )"
 d="M39.7070000000001,37.0170000000001 C39.7070000000001,37.0170000000001 39.1759999999999,37.553 39.1759999999999,37.553 C38.883,37.849 38.4069999999999,37.849 38.114,37.553 C38.114,37.553 27.585,26.928 27.585,26.928 C27.585,26.928 16.9090000000001,37.7 16.9090000000001,37.7 C16.6120000000001,38 16.1310000000001,38 15.8340000000001,37.7 C15.8340000000001,37.7 15.297,37.158 15.297,37.158 C15,36.859 15,36.373 15.297,36.074 C15.297,36.074 25.973,25.301 25.973,25.301 C25.973,25.301 15.818,15.054 15.818,15.054 C15.5250000000001,14.758 15.5250000000001,14.279 15.818,13.9829999999999 C15.818,13.9829999999999 16.3489999999999,13.447 16.3489999999999,13.447 C16.6420000000001,13.151 17.1179999999999,13.151 17.4110000000001,13.447 C17.4110000000001,13.447 27.5650000000001,23.694 27.5650000000001,23.694 C27.5650000000001,23.694 37.866,13.299 37.866,13.299 C38.162,13 38.644,13 38.9400000000001,13.299 C38.9400000000001,13.299 39.4780000000001,13.842 39.4780000000001,13.842 C39.7739999999999,14.141 39.7739999999999,14.627 39.4780000000001,14.926 C39.4780000000001,14.926 29.1769999999999,25.3200000000001 29.1769999999999,25.3200000000001 C29.1769999999999,25.3200000000001 39.7070000000001,35.946 39.7070000000001,35.946 C40,36.242 40,36.721 39.7070000000001,37.0170000000001 Z "/>
</svg>
