<?xml version="1.0" encoding="utf-8"?>
<!DOCTYPE svg PUBLIC "-//W3C//DTD SVG 1.1//EN" "http://www.w3.org/Graphics/SVG/1.1/DTD/svg11.dtd">
<svg version="1.1" baseProfile="full"
 xmlns="http://www.w3.org/2000/svg"
 xmlns:xlink="http://www.w3.org/1999/xlink"
 xmlns:ev="http://www.w3.org/2001/xml-events" 
  height="81px" 
  width="115px" 
>
<path fill="rgb( 247, 235, 150 )"
 d="M101.276,80.263 C101.276,80.263 14.357,80.263 14.357,80.263 C6.79000000000002,80.263 0.63299999999998,74.129 0.63299999999998,66.588 C0.63299999999998,66.588 0.63299999999998,14.166 0.63299999999998,14.166 C0.63299999999998,6.625 6.79000000000002,0.49099999999999 14.357,0.49099999999999 C14.357,0.49099999999999 101.276,0.49099999999999 101.276,0.49099999999999 C108.844,0.49099999999999 115,6.625 115,14.166 C115,14.166 115,66.588 115,66.588 C115,74.129 108.844,80.263 101.276,80.263 ZM110.425,14.166 C110.425,9.13900000000001 106.322,5.04899999999998 101.276,5.04899999999998 C101.276,5.04899999999998 14.357,5.04899999999998 14.357,5.04899999999998 C9.31099999999998,5.04899999999998 5.20800000000003,9.13900000000001 5.20800000000003,14.166 C5.20800000000003,14.166 5.20800000000003,23.028 5.20800000000003,23.028 C5.20800000000003,23.028 110.137,23.028 110.137,23.028 C110.137,23.028 110.137,27.787 110.137,27.787 C110.137,27.787 5.20800000000003,27.787 5.20800000000003,27.787 C5.20800000000003,27.787 5.20800000000003,66.588 5.20800000000003,66.588 C5.20800000000003,71.615 9.31099999999998,75.705 14.357,75.705 C14.357,75.705 101.276,75.705 101.276,75.705 C106.322,75.705 110.425,71.615 110.425,66.588 C110.425,66.588 110.425,14.166 110.425,14.166 ZM96.653,54.983 C96.653,54.983 80.688,54.983 80.688,54.983 C79.425,54.983 78.401,53.963 78.401,52.704 C78.401,52.704 78.401,43.68 78.401,43.68 C78.401,42.421 79.425,41.401 80.688,41.401 C80.688,41.401 96.653,41.401 96.653,41.401 C97.9160000000001,41.401 98.9400000000001,42.421 98.9400000000001,43.68 C98.9400000000001,43.68 98.9400000000001,52.704 98.9400000000001,52.704 C98.9400000000001,53.963 97.9160000000001,54.983 96.653,54.983 ZM58.347,45.741 C58.347,45.741 15.602,45.741 15.602,45.741 C14.403,45.741 13.431,44.772 13.431,43.578 C13.431,42.383 14.403,41.414 15.602,41.414 C15.602,41.414 58.347,41.414 58.347,41.414 C59.546,41.414 60.518,42.383 60.518,43.578 C60.518,44.772 59.546,45.741 58.347,45.741 ZM15.602,55.09 C15.602,55.09 37.761,55.09 37.761,55.09 C38.96,55.09 39.932,56.058 39.932,57.253 C39.932,58.447 38.96,59.416 37.761,59.416 C37.761,59.416 15.602,59.416 15.602,59.416 C14.403,59.416 13.431,58.447 13.431,57.253 C13.431,56.058 14.403,55.09 15.602,55.09 Z "/>
</svg>
