<?xml version="1.0" encoding="utf-8"?>
<!DOCTYPE svg PUBLIC "-//W3C//DTD SVG 1.1//EN" "http://www.w3.org/Graphics/SVG/1.1/DTD/svg11.dtd">
<svg version="1.1" baseProfile="full"
 xmlns="http://www.w3.org/2000/svg"
 xmlns:xlink="http://www.w3.org/1999/xlink"
 xmlns:ev="http://www.w3.org/2001/xml-events" 
  height="85px" 
  width="86px" 
>
<path fill="rgb( 247, 235, 150 )"
 d="M85.353,47.87 C85.353,68.344 66.384,85 43.069,85 C19.754,85 0.78500000000003,68.344 0.78500000000003,47.87 C0.78500000000003,47.87 0.714,39.375 0.685,37.765 C0.95800000000003,16.901 19.847,0 43.037,0 C65.482,0 83.857,15.845 85.263,35.781 C85.306,38.712 85.366,40.305 85.38,45.39 C85.365,46.372 85.353,47.224 85.353,47.87 ZM43.069,80.402 C59.089,80.402 72.768,71.706 78.205,59.506 C70.591,69.714 57.67,76.445 43.037,76.445 C28.505,76.445 15.665,69.805 8.03100000000001,59.716 C13.537,71.816 27.149,80.402 43.069,80.402 ZM80.772,37.983 C80.626,19.554 63.761,4.59899999999999 43.037,4.59899999999999 C22.221,4.59899999999999 5.28699999999998,19.682 5.28699999999998,38.222 C5.28699999999998,56.762 22.221,71.847 43.037,71.847 C63.823,71.847 80.736,56.802 80.781,38.296 C80.779,38.189 80.774,38.089 80.772,37.983 ZM52.854,53.288 C52.259,53.533 51.559,53.737 50.757,53.892 C50.757,53.892 50.757,59 50.757,59 C50.757,59 46.021,59 46.021,59 C46.021,59 46.021,54.292 46.021,54.292 C45.906,54.292 45.789,54.292 45.669,54.292 C45.669,54.292 42.972,54.292 42.972,54.292 C42.972,54.292 42.972,59 42.972,59 C42.972,59 38.234,59 38.234,59 C38.234,59 38.234,54.292 38.234,54.292 C38.234,54.292 31,54.292 31,54.292 C31,54.292 31,50.342 31,50.342 C31,50.342 32.092,50.342 32.092,50.342 C32.83,50.342 33.337,50.28 33.593,50.152 C33.854,50.012 34.041,49.831 34.15,49.59 C34.26,49.353 34.311,48.825 34.311,47.989 C34.311,47.989 34.311,32.043 34.311,32.043 C34.311,31.193 34.26,30.651 34.15,30.422 C34.041,30.186 33.851,30.002 33.593,29.866 C33.337,29.727 32.83,29.658 32.092,29.658 C32.092,29.658 31,29.658 31,29.658 C31,29.658 31,25.706 31,25.706 C31,25.706 38.234,25.706 38.234,25.706 C38.234,25.706 38.234,21 38.234,21 C38.234,21 42.972,21 42.972,21 C42.972,21 42.972,25.706 42.972,25.706 C42.972,25.706 46.024,25.706 46.024,25.706 C46.024,25.706 46.024,21 46.024,21 C46.024,21 50.76,21 50.76,21 C50.76,21 50.76,26.044 50.76,26.044 C51.466,26.184 52.108,26.354 52.642,26.579 C54.037,27.156 55.104,27.986 55.86,29.075 C56.609,30.165 56.984,31.358 56.984,32.654 C56.984,33.598 56.777,34.492 56.378,35.34 C55.986,36.182 55.421,36.933 54.67,37.59 C53.928,38.242 52.94,38.771 51.717,39.195 C53.03,39.535 54.037,39.916 54.729,40.322 C55.737,40.893 56.531,41.7 57.116,42.728 C57.707,43.762 58,44.909 57.999,46.175 C57.999,47.691 57.556,49.09 56.652,50.372 C55.756,51.649 54.489,52.621 52.854,53.288 ZM49.637,31.789 C49.273,31.258 48.737,30.879 48.047,30.657 C47.351,30.427 46.099,30.312 44.307,30.312 C44.307,30.312 41.239,30.312 41.239,30.312 C41.239,30.312 41.242,37.288 41.242,37.288 C41.242,37.288 44.31,37.288 44.31,37.288 C45.915,37.288 47.101,37.148 47.872,36.871 C48.64,36.603 49.218,36.19 49.611,35.634 C49.994,35.079 50.189,34.443 50.189,33.722 C50.189,32.974 50.008,32.328 49.637,31.789 ZM50.149,43.274 C49.771,42.682 49.183,42.241 48.412,41.94 C47.633,41.638 46.463,41.485 44.863,41.485 C44.863,41.485 41.241,41.485 41.241,41.485 C41.241,41.485 41.241,47.675 41.241,47.675 C41.248,48.558 41.288,49.068 41.335,49.223 C41.405,49.412 41.51,49.548 41.667,49.615 C41.824,49.689 42.241,49.73 42.92,49.73 C42.92,49.73 44.965,49.73 44.965,49.73 C46.154,49.73 47.139,49.615 47.915,49.391 C48.704,49.169 49.359,48.696 49.91,47.991 C50.463,47.274 50.74,46.424 50.74,45.424 C50.74,44.569 50.54,43.859 50.149,43.274 ZM43.249,14.258 C27.65,14.258 14.959,25.189 14.959,38.625 C14.959,39.023 14.969,39.417 14.991,39.809 C15.06,41.076 14.085,42.16 12.812,42.229 C12.769,42.231 12.728,42.232 12.685,42.232 C11.468,42.232 10.449,41.283 10.383,40.058 C10.357,39.583 10.343,39.106 10.343,38.625 C10.343,22.654 25.104,9.66000000000003 43.249,9.66000000000003 C44.523,9.66000000000003 45.556,10.689 45.556,11.959 C45.556,13.229 44.523,14.258 43.249,14.258 ZM0.685,37.765 C0.68299999999999,37.918 0.67200000000003,38.069 0.67200000000003,38.222 C0.67200000000003,37.39 0.67700000000002,37.338 0.685,37.765 Z "/>
</svg>
