<?xml version="1.0" encoding="utf-8"?>
<!DOCTYPE svg PUBLIC "-//W3C//DTD SVG 1.1//EN" "http://www.w3.org/Graphics/SVG/1.1/DTD/svg11.dtd">
<svg version="1.1" baseProfile="full"
 xmlns="http://www.w3.org/2000/svg"
 xmlns:xlink="http://www.w3.org/1999/xlink"
 xmlns:ev="http://www.w3.org/2001/xml-events" 
  height="37px" 
  width="37px" 
>
<path fill="rgb( 158, 147, 60 )"
 d="M18.5,0 C28.717,0 37,8.2829999999999 37,18.5 C37,28.7170000000001 28.717,37 18.5,37 C8.28300000000002,37 0,28.7170000000001 0,18.5 C0,8.2829999999999 8.28300000000002,0 18.5,0 Z "/>
<path fill-opacity="0" fill="rgb( 233, 218, 52 )" stroke="rgb(233, 218, 52)" stroke-width="2"
 d="M18.5,27.0610000000001 C17.77,27.0610000000001 17.058,26.9949999999999 16.366,26.8800000000001 C16.366,26.8800000000001 11.366,29.915 11.366,29.915 C11.366,29.915 11.366,24.8629999999998 11.366,24.8629999999998 C8.75799999999998,23.0329999999999 7.08499999999998,20.2260000000001 7.08499999999998,17.0729999999999 C7.08499999999998,11.5569999999998 12.196,7.08500000000004 18.5,7.08500000000004 C24.804,7.08500000000004 29.915,11.5569999999998 29.915,17.0729999999999 C29.915,22.5889999999999 24.804,27.0610000000001 18.5,27.0610000000001 Z "/>
</svg>
