<?xml version="1.0" encoding="utf-8"?>
<!DOCTYPE svg PUBLIC "-//W3C//DTD SVG 1.1//EN" "http://www.w3.org/Graphics/SVG/1.1/DTD/svg11.dtd">
<svg version="1.1" baseProfile="full"
 xmlns="http://www.w3.org/2000/svg"
 xmlns:xlink="http://www.w3.org/1999/xlink"
 xmlns:ev="http://www.w3.org/2001/xml-events" 
  height="37px" 
  width="37px" 
>
<path fill="rgb( 158, 147, 60 )"
 d="M18.636,0 C28.778,0 37,8.27500000000009 37,18.482 C37,28.6900000000001 28.778,36.9650000000001 18.636,36.9650000000001 C8.49400000000003,36.9650000000001 0.27300000000002,28.6900000000001 0.27300000000002,18.482 C0.27300000000002,8.27500000000009 8.49400000000003,0 18.636,0 Z "/>
<path fill="rgb( 233, 218, 52 )"
 d="M17.981,29.886 C16.408,29.886 14.99,29.6529999999998 13.767,29.1909999999998 C12.553,28.7359999999999 11.512,28.0700000000002 10.681,27.2130000000002 C9.85300000000001,26.3629999999998 9.20600000000002,25.2979999999998 8.75999999999999,24.049 C8.315,22.7919999999999 8.08699999999999,21.3420000000001 8.08699999999999,19.739 C8.08699999999999,18.6210000000001 8.20299999999997,17.5340000000001 8.43900000000002,16.5129999999999 C8.67099999999999,15.4949999999999 9.00999999999999,14.5349999999999 9.452,13.6599999999999 C9.892,12.788 10.433,11.9859999999999 11.067,11.2739999999999 C11.695,10.5659999999998 12.424,9.95200000000023 13.229,9.44700000000012 C14.04,8.94300000000021 14.941,8.55000000000018 15.912,8.27700000000004 C16.881,8.00500000000011 17.941,7.86499999999978 19.062,7.86499999999978 C20.421,7.86499999999978 21.689,8.09299999999985 22.832,8.54500000000007 C23.966,8.99099999999999 24.955,9.64100000000008 25.778,10.4769999999999 C26.597,11.3110000000001 27.246,12.3409999999999 27.707,13.5390000000002 C28.171,14.7399999999998 28.404,16.1190000000001 28.404,17.634 C28.404,18.4670000000001 28.305,19.319 28.116,20.1669999999999 C27.923,20.9830000000002 27.627,21.723 27.243,22.364 C26.857,23.002 26.392,23.5010000000002 25.817,23.895 C25.262,24.2719999999999 24.621,24.4560000000001 23.854,24.4560000000001 C23.551,24.4560000000001 23.271,24.4169999999999 23.009,24.3400000000001 C22.752,24.2629999999999 22.511,24.1550000000002 22.296,24.0149999999999 C22.079,23.8739999999998 21.895,23.7159999999999 21.737,23.5239999999999 C21.59,23.3490000000002 21.474,23.1509999999998 21.396,22.9400000000001 C21.396,22.9400000000001 21.284,22.645 21.284,22.645 C21.284,22.645 20.758,22.645 20.758,22.645 C20.758,22.645 20.423,22.828 20.423,22.828 C20.265,23.0430000000001 20.085,23.252 19.881,23.453 C19.67,23.654 19.447,23.8240000000001 19.204,23.9699999999998 C18.955,24.1190000000001 18.681,24.2379999999998 18.385,24.3240000000001 C18.086,24.4119999999998 17.755,24.4560000000001 17.402,24.4560000000001 C16.72,24.4560000000001 16.113,24.335 15.591,24.096 C15.077,23.8580000000002 14.638,23.518 14.287,23.0830000000001 C13.929,22.6379999999999 13.654,22.098 13.469,21.4769999999999 C13.274,20.835 13.175,20.114 13.175,19.3310000000001 C13.175,18.4250000000002 13.308,17.585 13.568,16.835 C13.826,16.0909999999999 14.199,15.4430000000002 14.676,14.9099999999999 C15.153,14.3760000000002 15.745,13.9549999999999 16.426,13.6610000000001 C17.113,13.3629999999998 17.9,13.2109999999998 18.764,13.2109999999998 C19.157,13.2109999999998 19.559,13.2339999999999 19.975,13.2800000000002 C20.398,13.3249999999998 20.8,13.3850000000002 21.189,13.4569999999999 C21.579,13.5309999999999 21.945,13.614 22.284,13.703 C22.486,13.7570000000001 22.674,13.8099999999999 22.84,13.8649999999998 C22.84,13.8649999999998 22.573,19.393 22.573,19.393 C22.556,19.5949999999998 22.546,19.8099999999999 22.546,20.02 C22.546,20.02 22.546,20.3989999999999 22.546,20.3989999999999 C22.546,20.8359999999998 22.577,21.1880000000001 22.645,21.4769999999999 C22.723,21.8000000000002 22.819,22.0390000000002 22.944,22.2280000000001 C23.076,22.4380000000001 23.251,22.5999999999999 23.458,22.6900000000001 C23.622,22.7689999999998 23.813,22.8110000000001 24.014,22.8110000000001 C24.455,22.8110000000001 24.841,22.636 25.16,22.29 C25.44,21.9859999999999 25.668,21.587 25.837,21.1030000000001 C25.999,20.643 26.126,20.1039999999998 26.21,19.502 C26.294,18.9079999999999 26.339,18.2739999999999 26.339,17.6060000000002 C26.339,16.364 26.155,15.232 25.796,14.2420000000002 C25.43,13.25 24.921,12.4000000000001 24.274,11.712 C23.619,11.02 22.838,10.4879999999998 21.948,10.1300000000001 C21.067,9.77399999999989 20.094,9.59400000000005 19.062,9.59400000000005 C17.628,9.59400000000005 16.343,9.84700000000021 15.246,10.348 C14.141,10.8499999999999 13.204,11.5639999999999 12.454,12.4699999999998 C11.712,13.366 11.146,14.442 10.762,15.6680000000001 C10.385,16.8690000000001 10.194,18.2109999999998 10.194,19.6559999999999 C10.194,20.9870000000001 10.36,22.1909999999998 10.69,23.2310000000002 C11.023,24.2849999999999 11.528,25.1880000000001 12.191,25.9169999999999 C12.858,26.643 13.687,27.1999999999998 14.655,27.5749999999998 C15.607,27.9430000000002 16.719,28.1320000000001 17.956,28.1320000000001 C18.477,28.1320000000001 19.012,28.0970000000002 19.559,28.0300000000002 C20.103,27.9609999999998 20.642,27.8710000000001 21.182,27.7559999999999 C21.72,27.6399999999999 22.253,27.5010000000002 22.773,27.3389999999999 C23.074,27.2440000000001 23.369,27.1460000000002 23.651,27.0419999999999 C23.651,27.0419999999999 23.651,28.7689999999998 23.651,28.7689999999998 C22.905,29.0929999999998 22.079,29.3560000000002 21.19,29.5529999999999 C20.197,29.7759999999998 19.116,29.886 17.981,29.886 ZM18.764,14.8420000000001 C18.153,14.8420000000001 17.62,14.9830000000002 17.182,15.261 C16.761,15.5279999999998 16.411,15.8899999999999 16.14,16.3359999999998 C15.885,16.7649999999999 15.694,17.2559999999999 15.584,17.7950000000001 C15.473,18.3270000000002 15.417,18.8620000000001 15.417,19.3879999999999 C15.417,20.549 15.617,21.3809999999999 16.022,21.9349999999999 C16.45,22.5160000000001 17.027,22.8110000000001 17.739,22.8110000000001 C18.2,22.8110000000001 18.609,22.6950000000002 18.958,22.4670000000001 C19.295,22.241 19.571,21.9250000000002 19.783,21.5250000000001 C19.975,21.1599999999999 20.128,20.7139999999999 20.232,20.2080000000001 C20.331,19.7220000000002 20.394,19.1790000000001 20.425,18.585 C20.425,18.585 20.607,15.1039999999998 20.607,15.1039999999998 C20.607,15.1039999999998 20.252,15.011 20.252,15.011 C20.053,14.9589999999998 19.824,14.9180000000001 19.556,14.8870000000002 C19.299,14.8560000000002 19.037,14.8420000000001 18.764,14.8420000000001 Z "/>
</svg>
