<?xml version="1.0" encoding="utf-8"?>
<!DOCTYPE svg PUBLIC "-//W3C//DTD SVG 1.1//EN" "http://www.w3.org/Graphics/SVG/1.1/DTD/svg11.dtd">
<svg version="1.1" baseProfile="full"
 xmlns="http://www.w3.org/2000/svg"
 xmlns:xlink="http://www.w3.org/1999/xlink"
 xmlns:ev="http://www.w3.org/2001/xml-events" 
  height="37px" 
  width="37px" 
>
<path fill="rgb( 233, 218, 52 )"
 d="M17.973,2.39499999999998 C26.173,2.39499999999998 32.82,9.08500000000004 32.82,17.3380000000002 C32.82,25.5909999999999 26.173,32.2809999999999 17.973,32.2809999999999 C9.77300000000002,32.2809999999999 3.12599999999998,25.5909999999999 3.12599999999998,17.3380000000002 C3.12599999999998,9.08500000000004 9.77300000000002,2.39499999999998 17.973,2.39499999999998 Z "/>
<path fill="rgb( 158, 147, 60 )"
 d="M35.192,21.194 C35.328,20.3229999999999 35.4,19.4290000000001 35.4,18.518 C35.4,9.04599999999982 27.774,1.36799999999994 18.359,1.36799999999994 C17.458,1.36799999999994 16.57,1.44300000000021 15.7,1.57799999999997 C14.131,0.60199999999986 12.28,0.03499999999985 10.294,0.03499999999985 C4.60899999999998,0.03499999999985 0,4.67399999999998 0,10.4000000000001 C0,12.3969999999999 0.56,14.2600000000002 1.53300000000002,15.8420000000001 C1.39699999999999,16.7170000000001 1.32299999999998,17.6060000000002 1.32299999999998,18.518 C1.32299999999998,27.989 8.95299999999997,35.6669999999999 18.359,35.6669999999999 C19.265,35.6669999999999 20.152,35.5970000000002 21.022,35.4589999999998 C22.591,36.4340000000002 24.443,37 26.429,37 C32.118,37 36.727,32.3609999999999 36.727,26.6370000000002 C36.727,24.6410000000001 36.162,22.777 35.192,21.194 ZM26.451,26.317 C25.73,27.3620000000001 24.672,28.1790000000001 23.289,28.7649999999999 C21.901,29.3519999999999 20.264,29.645 18.37,29.645 C16.104,29.645 14.226,29.248 12.742,28.4400000000001 C11.693,27.8629999999998 10.838,27.087 10.181,26.1210000000001 C9.51799999999997,25.1550000000002 9.18799999999999,24.2080000000001 9.18799999999999,23.2849999999999 C9.18799999999999,22.739 9.39299999999997,22.2669999999998 9.79599999999999,21.8789999999999 C10.202,21.491 10.724,21.2950000000001 11.343,21.2950000000001 C11.849,21.2950000000001 12.282,21.451 12.634,21.7530000000002 C12.984,22.0549999999998 13.28,22.498 13.522,23.0799999999999 C13.808,23.752 14.122,24.3159999999998 14.454,24.7719999999999 C14.786,25.212 15.254,25.5819999999999 15.86,25.875 C16.458,26.1660000000002 17.252,26.3099999999999 18.245,26.3099999999999 C19.605,26.3099999999999 20.708,26.0149999999999 21.551,25.431 C22.396,24.8420000000001 22.802,24.1219999999998 22.802,23.2530000000002 C22.802,22.5630000000001 22.582,22.0120000000002 22.134,21.5839999999998 C21.681,21.1500000000001 21.096,20.8209999999999 20.368,20.5889999999999 C19.639,20.3560000000002 18.659,20.1109999999999 17.431,19.8510000000001 C15.784,19.4879999999998 14.405,19.0659999999998 13.286,18.5830000000001 C12.168,18.096 11.278,17.4319999999998 10.619,16.5909999999999 C9.95699999999999,15.7449999999999 9.62799999999999,14.6909999999998 9.62799999999999,13.4459999999999 C9.62799999999999,12.2570000000001 9.97500000000002,11.1889999999999 10.675,10.2640000000001 C11.37,9.33899999999994 12.374,8.62699999999995 13.692,8.13000000000011 C15.001,7.63599999999997 16.543,7.38799999999992 18.308,7.38799999999992 C19.72,7.38799999999992 20.941,7.55299999999988 21.975,7.88000000000011 C23.008,8.21399999999994 23.865,8.64699999999993 24.555,9.1909999999998 C25.236,9.73900000000003 25.739,10.3099999999999 26.061,10.9140000000002 C26.38,11.5189999999998 26.537,12.1120000000001 26.537,12.6849999999999 C26.537,13.2220000000002 26.33,13.7069999999999 25.929,14.134 C25.528,14.5599999999999 25.012,14.777 24.412,14.777 C23.869,14.777 23.448,14.6509999999998 23.147,14.3820000000001 C22.86,14.127 22.56,13.7170000000001 22.237,13.1460000000002 C21.825,12.3449999999998 21.332,11.7269999999999 20.758,11.2840000000001 C20.197,10.8470000000002 19.274,10.6210000000001 17.996,10.623 C16.808,10.623 15.86,10.8670000000002 15.142,11.3429999999998 C14.418,11.8299999999999 14.075,12.3899999999999 14.075,13.049 C14.075,13.4639999999999 14.194,13.8110000000001 14.432,14.1109999999999 C14.669,14.4119999999998 15.008,14.6709999999998 15.438,14.8899999999999 C15.869,15.1149999999998 16.31,15.2890000000002 16.75,15.4110000000001 C17.198,15.5369999999998 17.936,15.7220000000002 18.964,15.9659999999999 C20.256,16.2429999999999 21.426,16.5590000000002 22.479,16.9000000000001 C23.528,17.241 24.425,17.6559999999999 25.165,18.1469999999999 C25.909,18.6370000000002 26.492,19.2620000000002 26.909,20.02 C27.326,20.7759999999998 27.536,21.6990000000001 27.536,22.7860000000001 C27.536,24.0970000000002 27.173,25.2750000000001 26.451,26.317 Z "/>
</svg>
