<?xml version="1.0" encoding="utf-8"?>
<!DOCTYPE svg PUBLIC "-//W3C//DTD SVG 1.1//EN" "http://www.w3.org/Graphics/SVG/1.1/DTD/svg11.dtd">
<svg version="1.1" baseProfile="full"
 xmlns="http://www.w3.org/2000/svg"
 xmlns:xlink="http://www.w3.org/1999/xlink"
 xmlns:ev="http://www.w3.org/2001/xml-events" 
  height="39px" 
  width="49px" 
>
<path fill="rgb( 158, 147, 60 )"
 d="M42.013,38.047 C42.013,38.047 6.01300000000003,38.047 6.01300000000003,38.047 C2.70500000000004,38.047 0.01300000000003,35.356 0.01300000000003,32.047 C0.01300000000003,32.047 0.01300000000003,6.04700000000003 0.01300000000003,6.04700000000003 C0.01300000000003,2.73899999999998 2.70500000000004,0.04700000000003 6.01300000000003,0.04700000000003 C6.01300000000003,0.04700000000003 42.013,0.04700000000003 42.013,0.04700000000003 C45.322,0.04700000000003 48.013,2.73899999999998 48.013,6.04700000000003 C48.013,6.04700000000003 48.013,32.047 48.013,32.047 C48.013,35.356 45.322,38.047 42.013,38.047 ZM46.013,6.04700000000003 C46.013,3.84199999999998 44.2190000000001,2.04700000000003 42.013,2.04700000000003 C42.013,2.04700000000003 6.01300000000003,2.04700000000003 6.01300000000003,2.04700000000003 C3.80700000000002,2.04700000000003 2.01300000000003,3.84199999999998 2.01300000000003,6.04700000000003 C2.01300000000003,6.04700000000003 2.01300000000003,10.935 2.01300000000003,10.935 C2.01300000000003,10.935 45.8869999999999,10.935 45.8869999999999,10.935 C45.8869999999999,10.935 45.8869999999999,13.023 45.8869999999999,13.023 C45.8869999999999,13.023 2.01300000000003,13.023 2.01300000000003,13.023 C2.01300000000003,13.023 2.01300000000003,32.047 2.01300000000003,32.047 C2.01300000000003,34.253 3.80700000000002,36.047 6.01300000000003,36.047 C6.01300000000003,36.047 42.013,36.047 42.013,36.047 C44.2190000000001,36.047 46.013,34.253 46.013,32.047 C46.013,32.047 46.013,6.04700000000003 46.013,6.04700000000003 ZM39.992,24.956 C39.992,24.956 33.0119999999999,24.956 33.0119999999999,24.956 C32.46,24.956 32.0119999999999,24.508 32.0119999999999,23.956 C32.0119999999999,23.956 32.0119999999999,19.996 32.0119999999999,19.996 C32.0119999999999,19.444 32.46,18.997 33.0119999999999,18.997 C33.0119999999999,18.997 39.992,18.997 39.992,18.997 C40.544,18.997 40.992,19.444 40.992,19.996 C40.992,19.996 40.992,23.956 40.992,23.956 C40.992,24.508 40.544,24.956 39.992,24.956 ZM23.245,20.9 C23.245,20.9 6.55700000000002,20.9 6.55700000000002,20.9 C6.03300000000002,20.9 5.60799999999995,20.476 5.60799999999995,19.952 C5.60799999999995,19.427 6.03300000000002,19.002 6.55700000000002,19.002 C6.55700000000002,19.002 23.245,19.002 23.245,19.002 C23.769,19.002 24.194,19.427 24.194,19.952 C24.194,20.476 23.769,20.9 23.245,20.9 ZM6.55700000000002,25.002 C6.55700000000002,25.002 16.245,25.002 16.245,25.002 C16.769,25.002 17.194,25.428 17.194,25.951 C17.194,26.476 16.769,26.901 16.245,26.901 C16.245,26.901 6.55700000000002,26.901 6.55700000000002,26.901 C6.03300000000002,26.901 5.60799999999995,26.476 5.60799999999995,25.951 C5.60799999999995,25.428 6.03300000000002,25.002 6.55700000000002,25.002 Z "/>
</svg>
