<?xml version="1.0" encoding="utf-8"?>
<!DOCTYPE svg PUBLIC "-//W3C//DTD SVG 1.1//EN" "http://www.w3.org/Graphics/SVG/1.1/DTD/svg11.dtd">
<svg version="1.1" baseProfile="full"
 xmlns="http://www.w3.org/2000/svg"
 xmlns:xlink="http://www.w3.org/1999/xlink"
 xmlns:ev="http://www.w3.org/2001/xml-events" 
  height="40px" 
  width="50px" 
>
<path fill="rgb( 158, 147, 60 )"
 d="M47.015,28.917 C47.015,28.917 46.985,28.917 46.985,28.917 C46.985,28.917 46.985,35.958 46.985,35.958 C46.985,38.165 45.191,39.959 42.985,39.959 C42.985,39.959 4.98500000000001,39.959 4.98500000000001,39.959 C2.779,39.959 0.98500000000001,38.165 0.98500000000001,35.958 C0.98500000000001,35.958 0.98500000000001,5.58300000000003 0.98500000000001,5.58300000000003 C0.98500000000001,5.58300000000003 0.98500000000001,4.041 0.98500000000001,4.041 C0.98500000000001,4.041 0.98500000000001,3.57299999999998 0.98500000000001,3.57299999999998 C0.98500000000001,3.57299999999998 1.03200000000004,3.57299999999998 1.03200000000004,3.57299999999998 C1.26700000000005,1.589 2.94000000000005,0.04199999999997 4.98500000000001,0.04199999999997 C4.98500000000001,0.04199999999997 36.922,0.04199999999997 36.922,0.04199999999997 C39.128,0.04199999999997 40.922,1.83499999999998 40.922,4.041 C40.922,4.041 40.922,6.959 40.922,6.959 C40.922,6.959 42.985,6.959 42.985,6.959 C45.191,6.959 46.985,8.75200000000001 46.985,10.958 C46.985,10.958 46.985,17.916 46.985,17.916 C46.985,17.916 47.015,17.916 47.015,17.916 C48.1180000000001,17.916 49.015,18.814 49.015,19.916 C49.015,19.916 49.015,26.916 49.015,26.916 C49.015,28.019 48.1180000000001,28.917 47.015,28.917 ZM38.922,4.041 C38.922,2.93900000000002 38.025,2.041 36.922,2.041 C36.922,2.041 4.98500000000001,2.041 4.98500000000001,2.041 C3.88199999999995,2.041 2.98500000000001,2.93900000000002 2.98500000000001,4.041 C2.98500000000001,4.041 2.98500000000001,5.58300000000003 2.98500000000001,5.58300000000003 C2.98500000000001,6.68599999999998 3.88199999999995,6.959 4.98500000000001,6.959 C4.98500000000001,6.959 38.922,6.959 38.922,6.959 C38.922,6.959 38.922,4.041 38.922,4.041 ZM44.985,10.958 C44.985,9.85599999999999 44.087,8.959 42.985,8.959 C42.985,8.959 39.922,8.959 39.922,8.959 C39.922,8.959 38.922,8.959 38.922,8.959 C38.922,8.959 4.98500000000001,8.959 4.98500000000001,8.959 C4.25300000000004,8.959 3.57600000000002,8.74700000000001 2.98500000000001,8.40199999999999 C2.98500000000001,8.40199999999999 2.98500000000001,35.958 2.98500000000001,35.958 C2.98500000000001,37.061 3.88199999999995,37.958 4.98500000000001,37.958 C4.98500000000001,37.958 42.985,37.958 42.985,37.958 C44.087,37.958 44.985,37.061 44.985,35.958 C44.985,35.958 44.985,28.917 44.985,28.917 C44.985,28.917 35.994,28.917 35.994,28.917 C34.891,28.917 33.994,28.019 33.994,26.916 C33.994,26.916 33.994,19.916 33.994,19.916 C33.994,18.814 34.891,17.916 35.994,17.916 C35.994,17.916 44.985,17.916 44.985,17.916 C44.985,17.916 44.985,10.958 44.985,10.958 ZM47.015,19.916 C47.015,19.916 45.985,19.916 45.985,19.916 C45.985,19.916 44.985,19.916 44.985,19.916 C44.985,19.916 35.994,19.916 35.994,19.916 C35.994,19.916 35.994,26.916 35.994,26.916 C35.994,26.916 44.985,26.916 44.985,26.916 C44.985,26.916 45.985,26.916 45.985,26.916 C45.985,26.916 47.016,26.916 47.016,26.916 C47.016,26.916 47.015,19.916 47.015,19.916 ZM39.467,25.493 C38.424,25.493 37.579,24.647 37.579,23.604 C37.579,22.561 38.424,21.715 39.467,21.715 C40.51,21.715 41.356,22.561 41.356,23.604 C41.356,24.647 40.51,25.493 39.467,25.493 Z "/>
</svg>
