<?xml version="1.0" encoding="utf-8"?>
<!DOCTYPE svg PUBLIC "-//W3C//DTD SVG 1.1//EN" "http://www.w3.org/Graphics/SVG/1.1/DTD/svg11.dtd">
<svg version="1.1" baseProfile="full"
 xmlns="http://www.w3.org/2000/svg"
 xmlns:xlink="http://www.w3.org/1999/xlink"
 xmlns:ev="http://www.w3.org/2001/xml-events" 
  height="47px" 
  width="47px" 
>
<path fill="rgb( 217, 196, 36 )"
 d="M23.5,0 C36.479,0 47,10.521 47,23.5 C47,36.479 36.479,47 23.5,47 C10.521,47 0,36.479 0,23.5 C0,10.521 10.521,0 23.5,0 Z "/>
<path fill="rgb( 255, 255, 255 )"
 d="M22.662,38 C20.648,38 18.8339999999999,37.703 17.269,37.116 C15.715,36.537 14.383,35.691 13.319,34.5999999999999 C12.26,33.519 11.432,32.1659999999999 10.862,30.578 C10.292,28.979 10,27.135 10,25.097 C10,23.6759999999999 10.148,22.2940000000001 10.45,20.9960000000001 C10.747,19.702 11.181,18.481 11.747,17.3679999999999 C12.3099999999999,16.259 13.002,15.239 13.813,14.335 C14.617,13.4349999999999 15.55,12.653 16.58,12.0119999999999 C17.6180000000001,11.3710000000001 18.771,10.8710000000001 20.014,10.5239999999999 C21.254,10.1780000000001 22.61,10 24.045,10 C25.783,10 27.4059999999999,10.29 28.87,10.864 C30.3200000000001,11.432 31.586,12.258 32.639,13.3209999999999 C33.688,14.3820000000001 34.518,15.691 35.1079999999999,17.2149999999999 C35.701,18.742 36,20.4939999999999 36,22.421 C36,23.48 35.873,24.5640000000001 35.631,25.6410000000001 C35.384,26.6790000000001 35.005,27.6199999999999 34.514,28.4349999999999 C34.02,29.2460000000001 33.425,29.8810000000001 32.689,30.3820000000001 C31.979,30.8610000000001 31.158,31.095 30.177,31.095 C29.789,31.095 29.431,31.046 29.096,30.9469999999999 C28.7670000000001,30.8499999999999 28.458,30.712 28.183,30.5340000000001 C27.905,30.356 27.671,30.154 27.468,29.9100000000001 C27.279,29.6869999999999 27.131,29.4359999999999 27.0309999999999,29.1669999999999 C27.0309999999999,29.1669999999999 26.888,28.7919999999999 26.888,28.7919999999999 C26.888,28.7919999999999 26.215,28.7919999999999 26.215,28.7919999999999 C26.215,28.7919999999999 25.787,29.0250000000001 25.787,29.0250000000001 C25.5839999999999,29.299 25.353,29.5640000000001 25.092,29.8199999999999 C24.822,30.075 24.537,30.2909999999999 24.227,30.4780000000001 C23.908,30.6669999999999 23.557,30.818 23.178,30.9280000000001 C22.795,31.039 22.372,31.095 21.92,31.095 C21.048,31.095 20.271,30.941 19.603,30.6369999999999 C18.9450000000001,30.3340000000001 18.383,29.902 17.9349999999999,29.3499999999999 C17.476,28.7829999999999 17.124,28.097 16.8869999999999,27.308 C16.638,26.491 16.511,25.5740000000001 16.511,24.579 C16.511,23.4269999999999 16.682,22.3579999999999 17.014,21.4059999999999 C17.3440000000001,20.4590000000001 17.822,19.636 18.432,18.9580000000001 C19.043,18.278 19.8,17.7439999999999 20.672,17.3689999999999 C21.55,16.99 22.557,16.798 23.664,16.798 C24.1660000000001,16.798 24.681,16.827 25.213,16.885 C25.755,16.942 26.269,17.018 26.7670000000001,17.1099999999999 C27.266,17.204 27.735,17.309 28.168,17.423 C28.426,17.491 28.667,17.559 28.88,17.6289999999999 C28.88,17.6289999999999 28.537,24.6579999999999 28.537,24.6579999999999 C28.516,24.914 28.504,25.1880000000001 28.504,25.454 C28.504,25.454 28.504,25.9369999999999 28.504,25.9369999999999 C28.504,26.4929999999999 28.542,26.9400000000001 28.63,27.307 C28.73,27.7190000000001 28.853,28.0219999999999 29.013,28.2619999999999 C29.182,28.53 29.4059999999999,28.7349999999999 29.671,28.8489999999999 C29.88,28.95 30.124,29.0039999999999 30.3819999999999,29.0039999999999 C30.946,29.0039999999999 31.4400000000001,28.7809999999999 31.848,28.3420000000001 C32.207,27.954 32.499,27.4469999999999 32.715,26.8320000000001 C32.922,26.2470000000001 33.0839999999999,25.5619999999999 33.192,24.797 C33.3,24.04 33.357,23.2349999999999 33.357,22.386 C33.357,20.806 33.121,19.367 32.662,18.1079999999999 C32.194,16.847 31.543,15.7660000000001 30.715,14.8910000000001 C29.877,14.011 28.876,13.335 27.7380000000001,12.8810000000001 C26.61,12.4269999999999 25.365,12.1980000000001 24.045,12.1980000000001 C22.21,12.1980000000001 20.566,12.52 19.1609999999999,13.1569999999999 C17.747,13.796 16.548,14.703 15.5890000000001,15.855 C14.639,16.9949999999999 13.914,18.3630000000001 13.423,19.922 C12.941,21.4490000000001 12.697,23.154 12.697,24.992 C12.697,26.684 12.909,28.2139999999999 13.331,29.538 C13.7569999999999,30.8779999999999 14.403,32.0250000000001 15.252,32.952 C16.105,33.875 17.1660000000001,34.585 18.405,35.0609999999999 C19.623,35.529 21.046,35.769 22.63,35.769 C23.296,35.769 23.981,35.7249999999999 24.681,35.6400000000001 C25.377,35.5509999999999 26.067,35.4369999999999 26.758,35.2909999999999 C27.446,35.144 28.128,34.9670000000001 28.794,34.761 C29.178,34.6400000000001 29.556,34.5150000000001 29.917,34.383 C29.917,34.383 29.917,36.579 29.917,36.579 C28.962,36.991 27.905,37.325 26.768,37.576 C25.497,37.8599999999999 24.114,38 22.662,38 ZM23.664,18.8720000000001 C22.881,18.8720000000001 22.2,19.05 21.638,19.404 C21.1,19.7429999999999 20.652,20.203 20.306,20.771 C19.979,21.317 19.734,21.9400000000001 19.5940000000001,22.626 C19.452,23.3019999999999 19.38,23.9829999999999 19.38,24.6510000000001 C19.38,26.1279999999999 19.636,27.1849999999999 20.154,27.8889999999999 C20.702,28.6279999999999 21.441,29.0039999999999 22.351,29.0039999999999 C22.942,29.0039999999999 23.465,28.857 23.912,28.566 C24.343,28.279 24.696,27.877 24.967,27.3689999999999 C25.213,26.904 25.409,26.338 25.542,25.694 C25.669,25.076 25.75,24.385 25.789,23.6300000000001 C25.789,23.6300000000001 26.021,19.2049999999999 26.021,19.2049999999999 C26.021,19.2049999999999 25.567,19.086 25.567,19.086 C25.313,19.02 25.02,18.9680000000001 24.677,18.9290000000001 C24.348,18.8889999999999 24.013,18.8720000000001 23.664,18.8720000000001 Z "/>
</svg>
