<?xml version="1.0" encoding="utf-8"?>
<!DOCTYPE svg PUBLIC "-//W3C//DTD SVG 1.1//EN" "http://www.w3.org/Graphics/SVG/1.1/DTD/svg11.dtd">
<svg version="1.1" baseProfile="full"
 xmlns="http://www.w3.org/2000/svg"
 xmlns:xlink="http://www.w3.org/1999/xlink"
 xmlns:ev="http://www.w3.org/2001/xml-events" 
  height="51px" 
  width="71px" 
>
<path fill="rgb( 244, 221, 54 )"
 d="M68,0 C68,0 71,12.796 71,25.568 C71,38.295 68,51 68,51 C68,51 3.5,51 3.5,51 C3.5,51 0,38.253 0,25.504 C0,12.753 3.5,0 3.5,0 C3.5,0 68,0 68,0 Z "/>
<path fill="rgb( 255, 255, 255 )"
 d="M41.99,27.4589999999999 C41.99,34.925 35.048,41 26.5160000000001,41 C17.9829999999999,41 11.0410000000001,34.925 11.0410000000001,27.4589999999999 C11.0410000000001,27.4589999999999 11.0170000000001,24.547 11.006,23.838 C11.067,16.199 17.9929999999999,10 26.5039999999999,10 C34.7180000000001,10 41.443,15.779 41.9570000000001,23.05 C41.973,24.119 41.9949999999999,24.699 42,26.554 C41.9939999999999,26.912 41.99,27.223 41.99,27.4589999999999 ZM26.5160000000001,39.323 C32.3779999999999,39.323 37.384,36.152 39.374,31.702 C36.588,35.425 31.8589999999999,37.88 26.5039999999999,37.88 C21.1859999999999,37.88 16.4870000000001,35.458 13.693,31.779 C15.7080000000001,36.192 20.6900000000001,39.323 26.5160000000001,39.323 ZM40.3140000000001,23.853 C40.26,17.131 34.088,11.677 26.5039999999999,11.677 C18.886,11.677 12.6890000000001,17.178 12.6890000000001,23.9400000000001 C12.6890000000001,30.701 18.886,36.203 26.5039999999999,36.203 C34.1110000000001,36.203 40.3,30.716 40.317,23.967 C40.316,23.928 40.3140000000001,23.891 40.3140000000001,23.853 ZM30.097,29.4349999999999 C29.8789999999999,29.524 29.623,29.598 29.329,29.655 C29.329,29.655 29.329,31.518 29.329,31.518 C29.329,31.518 27.596,31.518 27.596,31.518 C27.596,31.518 27.596,29.801 27.596,29.801 C27.5540000000001,29.801 27.511,29.801 27.4670000000001,29.801 C27.4670000000001,29.801 26.48,29.801 26.48,29.801 C26.48,29.801 26.48,31.518 26.48,31.518 C26.48,31.518 24.7460000000001,31.518 24.7460000000001,31.518 C24.7460000000001,31.518 24.7460000000001,29.801 24.7460000000001,29.801 C24.7460000000001,29.801 22.0989999999999,29.801 22.0989999999999,29.801 C22.0989999999999,29.801 22.0989999999999,28.36 22.0989999999999,28.36 C22.0989999999999,28.36 22.499,28.36 22.499,28.36 C22.769,28.36 22.954,28.337 23.048,28.2910000000001 C23.143,28.24 23.212,28.174 23.252,28.086 C23.2919999999999,27.999 23.3099999999999,27.807 23.3099999999999,27.502 C23.3099999999999,27.502 23.3099999999999,21.686 23.3099999999999,21.686 C23.3099999999999,21.376 23.2919999999999,21.179 23.252,21.095 C23.212,21.009 23.1420000000001,20.942 23.048,20.8920000000001 C22.954,20.842 22.769,20.816 22.499,20.816 C22.499,20.816 22.0989999999999,20.816 22.0989999999999,20.816 C22.0989999999999,20.816 22.0989999999999,19.375 22.0989999999999,19.375 C22.0989999999999,19.375 24.7460000000001,19.375 24.7460000000001,19.375 C24.7460000000001,19.375 24.7460000000001,17.659 24.7460000000001,17.659 C24.7460000000001,17.659 26.48,17.659 26.48,17.659 C26.48,17.659 26.48,19.375 26.48,19.375 C26.48,19.375 27.597,19.375 27.597,19.375 C27.597,19.375 27.597,17.659 27.597,17.659 C27.597,17.659 29.3299999999999,17.659 29.3299999999999,17.659 C29.3299999999999,17.659 29.3299999999999,19.499 29.3299999999999,19.499 C29.5889999999999,19.549 29.8240000000001,19.612 30.019,19.693 C30.53,19.904 30.9200000000001,20.207 31.1969999999999,20.604 C31.471,21.001 31.6079999999999,21.437 31.6079999999999,21.909 C31.6079999999999,22.254 31.5319999999999,22.58 31.386,22.889 C31.2429999999999,23.196 31.0360000000001,23.47 30.761,23.7089999999999 C30.49,23.947 30.1279999999999,24.14 29.681,24.295 C30.1610000000001,24.419 30.53,24.558 30.7829999999999,24.706 C31.152,24.914 31.442,25.208 31.6559999999999,25.583 C31.8720000000001,25.96 31.98,26.379 31.979,26.84 C31.979,27.393 31.817,27.903 31.4870000000001,28.371 C31.1590000000001,28.837 30.6949999999999,29.191 30.097,29.4349999999999 ZM28.9190000000001,21.5940000000001 C28.7860000000001,21.4 28.5899999999999,21.2619999999999 28.337,21.181 C28.0830000000001,21.097 27.625,21.055 26.9690000000001,21.055 C26.9690000000001,21.055 25.846,21.055 25.846,21.055 C25.846,21.055 25.847,23.599 25.847,23.599 C25.847,23.599 26.97,23.599 26.97,23.599 C27.557,23.599 27.991,23.548 28.2729999999999,23.447 C28.5550000000001,23.349 28.7660000000001,23.199 28.9100000000001,22.996 C29.05,22.794 29.1220000000001,22.561 29.1220000000001,22.299 C29.1220000000001,22.026 29.0550000000001,21.79 28.9190000000001,21.5940000000001 ZM29.107,25.782 C28.9680000000001,25.567 28.7529999999999,25.405 28.471,25.296 C28.1859999999999,25.1849999999999 27.758,25.13 27.172,25.13 C27.172,25.13 25.847,25.13 25.847,25.13 C25.847,25.13 25.847,27.3869999999999 25.847,27.3869999999999 C25.8489999999999,27.7089999999999 25.864,27.895 25.8810000000001,27.952 C25.9069999999999,28.021 25.9449999999999,28.071 26.0029999999999,28.095 C26.0599999999999,28.122 26.213,28.1369999999999 26.461,28.1369999999999 C26.461,28.1369999999999 27.2090000000001,28.1369999999999 27.2090000000001,28.1369999999999 C27.645,28.1369999999999 28.0050000000001,28.095 28.289,28.013 C28.578,27.932 28.818,27.76 29.019,27.503 C29.221,27.241 29.3230000000001,26.931 29.3230000000001,26.566 C29.3230000000001,26.255 29.25,25.996 29.107,25.782 ZM26.5809999999999,15.2 C20.873,15.2 16.2280000000001,19.186 16.2280000000001,24.087 C16.2280000000001,24.232 16.232,24.375 16.24,24.518 C16.2650000000001,24.981 15.9090000000001,25.376 15.443,25.401 C15.4269999999999,25.402 15.412,25.402 15.396,25.402 C14.951,25.402 14.578,25.056 14.5540000000001,24.609 C14.5440000000001,24.436 14.539,24.2619999999999 14.539,24.087 C14.539,18.2619999999999 19.941,13.523 26.5809999999999,13.523 C27.048,13.523 27.4259999999999,13.898 27.4259999999999,14.361 C27.4259999999999,14.825 27.048,15.2 26.5809999999999,15.2 ZM11.006,23.838 C11.005,23.872 11,23.905 11,23.9400000000001 C11,23.602 11.002,23.623 11.006,23.838 Z "/>
</svg>
