<?xml version="1.0" encoding="utf-8"?>
<!DOCTYPE svg PUBLIC "-//W3C//DTD SVG 1.1//EN" "http://www.w3.org/Graphics/SVG/1.1/DTD/svg11.dtd">
<svg version="1.1" baseProfile="full"
 xmlns="http://www.w3.org/2000/svg"
 xmlns:xlink="http://www.w3.org/1999/xlink"
 xmlns:ev="http://www.w3.org/2001/xml-events" 
  height="51px" 
  width="71px" 
>
<path fill="rgb( 244, 221, 54 )"
 d="M68,0 C68,0 71,12.796 71,25.568 C71,38.296 68,51 68,51 C68,51 3.5,51 3.5,51 C3.5,51 0,38.253 0,25.504 C0,12.752 3.5,0 3.5,0 C3.5,0 68,0 68,0 Z "/>
<path fill-opacity="0" fill="rgb( 255, 255, 255 )" stroke="rgb(255, 255, 255)" stroke-width="2"
 d="M27.5,36.375 C26.5730000000001,36.375 25.6690000000001,36.2910000000001 24.79,36.145 C24.79,36.145 18.4380000000001,40 18.4380000000001,40 C18.4380000000001,40 18.4380000000001,33.583 18.4380000000001,33.583 C15.126,31.2569999999999 13,27.692 13,23.687 C13,16.68 19.492,11 27.5,11 C35.508,11 42,16.68 42,23.687 C42,30.694 35.508,36.375 27.5,36.375 Z "/>
</svg>
