<?xml version="1.0" encoding="utf-8"?>
<!DOCTYPE svg PUBLIC "-//W3C//DTD SVG 1.1//EN" "http://www.w3.org/Graphics/SVG/1.1/DTD/svg11.dtd">
<svg version="1.1" baseProfile="full"
 xmlns="http://www.w3.org/2000/svg"
 xmlns:xlink="http://www.w3.org/1999/xlink"
 xmlns:ev="http://www.w3.org/2001/xml-events" 
  height="47px" 
  width="47px" 
>
<path fill="rgb( 255, 255, 255 )"
 d="M23,3 C33.4930000000001,3 42,11.5070000000001 42,22 C42,32.4929999999999 33.4930000000001,41 23,41 C12.5069999999999,41 4,32.4929999999999 4,22 C4,11.5070000000001 12.5069999999999,3 23,3 Z "/>
<path fill="rgb( 217, 196, 36 )"
 d="M45.035,26.902 C45.21,25.7950000000001 45.302,24.6590000000001 45.302,23.5 C45.302,11.4580000000001 35.543,1.69499999999994 23.494,1.69499999999994 C22.341,1.69499999999994 21.205,1.78999999999996 20.092,1.96199999999999 C18.0839999999999,0.72000000000003 15.7140000000001,0 13.173,0 C5.89800000000002,0 0,5.89799999999991 0,13.1780000000001 C0,15.7180000000001 0.71699999999998,18.087 1.96199999999999,20.098 C1.78700000000003,21.211 1.69299999999998,22.3409999999999 1.69299999999998,23.5 C1.69299999999998,35.5429999999999 11.457,45.3050000000001 23.494,45.3050000000001 C24.653,45.3050000000001 25.789,45.2159999999999 26.902,45.0409999999999 C28.91,46.28 31.28,47 33.821,47 C41.102,47 47,41.1020000000001 47,33.8240000000001 C47,31.2850000000001 46.277,28.9159999999999 45.035,26.902 ZM33.85,33.4169999999999 C32.926,34.7449999999999 31.572,35.7840000000001 29.802,36.529 C28.027,37.2750000000001 25.933,37.6479999999999 23.508,37.6479999999999 C20.6079999999999,37.6479999999999 18.205,37.143 16.305,36.116 C14.963,35.3820000000001 13.87,34.395 13.029,33.1669999999999 C12.18,31.9400000000001 11.759,30.7349999999999 11.759,29.5609999999999 C11.759,28.867 12.02,28.268 12.5359999999999,27.7739999999999 C13.055,27.2809999999999 13.724,27.0309999999999 14.515,27.0309999999999 C15.164,27.0309999999999 15.717,27.229 16.168,27.6130000000001 C16.615,27.998 16.994,28.5599999999999 17.304,29.3 C17.671,30.155 18.072,30.873 18.497,31.452 C18.922,32.011 19.521,32.482 20.296,32.855 C21.062,33.2249999999999 22.077,33.4079999999999 23.348,33.4079999999999 C25.0890000000001,33.4079999999999 26.501,33.0329999999999 27.579,32.29 C28.6609999999999,31.5409999999999 29.18,30.626 29.18,29.521 C29.18,28.644 28.899,27.944 28.325,27.3979999999999 C27.746,26.848 26.997,26.4290000000001 26.064,26.134 C25.1319999999999,25.838 23.879,25.5250000000001 22.307,25.1949999999999 C20.198,24.7329999999999 18.434,24.1969999999999 17.003,23.5830000000001 C15.571,22.9639999999999 14.432,22.1199999999999 13.5890000000001,21.05 C12.7430000000001,19.9739999999999 12.321,18.635 12.321,17.0509999999999 C12.321,15.539 12.766,14.182 13.6609999999999,13.0060000000001 C14.55,11.8299999999999 15.835,10.924 17.522,10.2929999999999 C19.197,9.66399999999999 21.171,9.34899999999993 23.428,9.34899999999993 C25.235,9.34899999999993 26.799,9.55799999999999 28.121,9.97399999999993 C29.444,10.3989999999999 30.54,10.95 31.423,11.6410000000001 C32.295,12.338 32.938,13.0640000000001 33.351,13.8330000000001 C33.758,14.6020000000001 33.9589999999999,15.356 33.9589999999999,16.0840000000001 C33.9589999999999,16.7670000000001 33.6950000000001,17.384 33.182,17.9259999999999 C32.668,18.4680000000001 32.008,18.7439999999999 31.24,18.7439999999999 C30.545,18.7439999999999 30.006,18.5830000000001 29.622,18.242 C29.255,17.9179999999999 28.87,17.396 28.457,16.6700000000001 C27.929,15.6510000000001 27.298,14.865 26.564,14.3030000000001 C25.846,13.7470000000001 24.665,13.46 23.029,13.463 C21.509,13.463 20.296,13.7729999999999 19.378,14.377 C18.451,14.9970000000001 18.0119999999999,15.7090000000001 18.0119999999999,16.546 C18.0119999999999,17.0740000000001 18.164,17.5160000000001 18.468,17.8979999999999 C18.772,18.279 19.206,18.6089999999999 19.756,18.8869999999999 C20.307,19.174 20.872,19.395 21.4349999999999,19.55 C22.008,19.711 22.952,19.9459999999999 24.269,20.2560000000001 C25.921,20.6079999999999 27.419,21.01 28.7670000000001,21.443 C30.109,21.876 31.2569999999999,22.404 32.204,23.029 C33.1559999999999,23.652 33.902,24.4469999999999 34.4349999999999,25.4110000000001 C34.9690000000001,26.3720000000001 35.239,27.5450000000001 35.239,28.9280000000001 C35.239,30.5940000000001 34.774,32.0920000000001 33.85,33.4169999999999 Z "/>
</svg>
